<svg width="111" height="111" viewBox="0 0 111 111" fill="none" xmlns="http://www.w3.org/2000/svg">
<path d="M0 55.5V74.64C0 90.4504 3.8739 96.8711 8.9133 102.082C14.1303 107.121 20.5572 111 36.3636 111H74.6364C90.4428 111 96.8697 107.121 102.087 102.082C107.126 96.8711 111 90.4504 111 74.64V36.36C111 20.5551 107.126 14.1289 102.087 8.91796C96.8697 3.87906 90.4428 0 74.6364 0H36.3636C20.5572 0 14.1303 3.87906 8.9133 8.91796C3.8739 14.1289 0 20.5551 0 36.36V55.5Z" fill="url(#paint0_linear_8_9)"/>
<path d="M11 56.1142V53.4141C12.4735 53.4141 13.4956 53.1051 14.0663 52.4872C14.637 51.8692 14.9223 50.8707 14.9223 49.4915V46.5227C14.9223 44.8659 15.1395 43.5405 15.5739 42.5464C16.0168 41.5434 16.6301 40.7866 17.4137 40.2762C18.2058 39.7657 19.1428 39.4254 20.2245 39.2552C21.3062 39.0851 22.4902 39 23.7763 39V43.2718C22.7712 43.2718 22.0047 43.4106 21.4766 43.6883C20.957 43.9569 20.6035 44.3778 20.4161 44.951C20.2288 45.5152 20.1351 46.2317 20.1351 47.1004V51.0229C20.1351 51.7035 20.0158 52.3528 19.7773 52.9708C19.5388 53.5797 19.0959 54.1216 18.4486 54.5962C17.8013 55.0619 16.8771 55.4336 15.6761 55.7112C14.4752 55.9799 12.9164 56.1142 11 56.1142ZM23.7763 73C22.4902 73 21.3062 72.9149 20.2245 72.7448C19.1428 72.5746 18.2058 72.2343 17.4137 71.7238C16.6301 71.2134 16.0168 70.4611 15.5739 69.467C15.1395 68.464 14.9223 67.1341 14.9223 65.4773V62.4951C14.9223 61.1159 14.637 60.1173 14.0663 59.4994C13.4956 58.8815 12.4735 58.5725 11 58.5725V55.8724C12.9164 55.8724 14.4752 56.0112 15.6761 56.2888C16.8771 56.5575 17.8013 56.9291 18.4486 57.4038C19.0959 57.8695 19.5388 58.4113 19.7773 59.0292C20.0158 59.6382 20.1351 60.2875 20.1351 60.9771V64.8996C20.1351 65.7594 20.2288 66.4758 20.4161 67.049C20.6035 67.6132 20.957 68.0341 21.4766 68.3117C22.0047 68.5804 22.7712 68.7147 23.7763 68.7147V73ZM11 58.5725V53.4141H15.5867V58.5725H11Z" fill="white"/>
<path d="M45.6877 42.2375H51.1559V61.4204C51.1559 63.1936 50.7769 64.734 50.0188 66.0415C49.2693 67.349 48.2259 68.3565 46.8886 69.064C45.5514 69.7715 43.9969 70.1252 42.2253 70.1252C40.6495 70.1252 39.2186 69.8342 37.9325 69.2521C36.6548 68.661 35.6412 67.7654 34.8917 66.5654C34.1421 65.3564 33.7716 63.8384 33.7802 62.0115H39.2867C39.3038 62.7369 39.4443 63.3593 39.7084 63.8787C39.9809 64.3892 40.3514 64.7832 40.8199 65.0608C41.2969 65.3295 41.859 65.4639 42.5064 65.4639C43.1878 65.4639 43.7627 65.3116 44.2312 65.0071C44.7082 64.6937 45.0702 64.2369 45.3172 63.6369C45.5642 63.0369 45.6877 62.298 45.6877 61.4204V42.2375Z" fill="white"/>
<path d="M55.7299 69.7491V42.2375H66.0531C68.0292 42.2375 69.7156 42.6091 71.1125 43.3524C72.5179 44.0868 73.5869 45.1301 74.3194 46.4824C75.0604 47.8258 75.4309 49.4064 75.4309 51.2244C75.4309 53.0514 75.0561 54.6231 74.3066 55.9396C73.5571 57.2471 72.4711 58.2501 71.0486 58.9486C69.6347 59.6472 67.9227 59.9964 65.9126 59.9964H59.0006V55.3216H65.0182C66.0744 55.3216 66.9517 55.1694 67.6501 54.8649C68.3486 54.5604 68.8682 54.1037 69.2089 53.4947C69.5581 52.8857 69.7327 52.1289 69.7327 51.2244C69.7327 50.3109 69.5581 49.5408 69.2089 48.9139C68.8682 48.287 68.3443 47.8123 67.6374 47.4899C66.9389 47.1586 66.0574 46.9929 64.9927 46.9929H61.262V69.7491H55.7299ZM69.8604 57.2292L76.3636 69.7491H70.2565L63.8939 57.2292H69.8604Z" fill="white"/>
<path d="M99 55.8724V58.5725C97.535 58.5725 96.5129 58.8815 95.9337 59.4994C95.363 60.1173 95.0777 61.1159 95.0777 62.4951V65.4773C95.0777 67.1341 94.8562 68.464 94.4133 69.467C93.9789 70.4611 93.3657 71.2134 92.5735 71.7238C91.7899 72.2343 90.8572 72.5746 89.7755 72.7448C88.7023 72.9149 87.5184 73 86.2237 73V68.7147C87.2288 68.7147 87.9911 68.5804 88.5107 68.3117C89.0387 68.0341 89.3965 67.6132 89.5839 67.049C89.7712 66.4758 89.8649 65.7594 89.8649 64.8996V60.9771C89.8649 60.2875 89.9842 59.6382 90.2227 59.0292C90.4612 58.4113 90.9041 57.8695 91.5514 57.4038C92.1987 56.9291 93.1229 56.5575 94.3239 56.2888C95.5248 56.0112 97.0836 55.8724 99 55.8724ZM86.2237 39C87.5184 39 88.7023 39.0851 89.7755 39.2552C90.8572 39.4254 91.7899 39.7657 92.5735 40.2762C93.3657 40.7866 93.9789 41.5434 94.4133 42.5464C94.8562 43.5405 95.0777 44.8659 95.0777 46.5227V49.4915C95.0777 50.8707 95.363 51.8692 95.9337 52.4872C96.5129 53.1051 97.535 53.4141 99 53.4141V56.1142C97.0836 56.1142 95.5248 55.9799 94.3239 55.7112C93.1229 55.4336 92.1987 55.0619 91.5514 54.5962C90.9041 54.1216 90.4612 53.5797 90.2227 52.9708C89.9842 52.3528 89.8649 51.7035 89.8649 51.0229V47.1004C89.8649 46.2317 89.7712 45.5152 89.5839 44.951C89.3965 44.3778 89.0387 43.9569 88.5107 43.6883C87.9911 43.4106 87.2288 43.2718 86.2237 43.2718V39ZM99 53.4141V58.5725H94.4133V53.4141H99Z" fill="white"/>
<defs>
<linearGradient id="paint0_linear_8_9" x1="11" y1="7" x2="100.431" y2="104.061" gradientUnits="userSpaceOnUse">
<stop stop-color="#2400FF"/>
<stop offset="1"/>
</linearGradient>
</defs>
</svg>
