<svg xmlns="http://www.w3.org/2000/svg" width="111" height="111" viewBox="0 0 111 111" fill="none">
<path d="M0 55.5V74.64C0 90.4504 3.8739 96.8711 8.9133 102.082C14.1303 107.121 20.5572 111 36.3636 111H74.6364C90.4428 111 96.8697 107.121 102.087 102.082C107.126 96.8711 111 90.4504 111 74.64V36.36C111 20.5551 107.126 14.1289 102.087 8.91796C96.8697 3.87906 90.4428 0 74.6364 0H36.3636C20.5572 0 14.1303 3.87906 8.9133 8.91796C3.8739 14.1289 0 20.5551 0 36.36V55.5Z" fill="url(#paint0_linear_6_2)"/>
<path d="M10 55.5958V53.5339C10.9421 53.5339 11.5946 53.3241 11.9574 52.9044C12.3256 52.4847 12.5097 51.8187 12.5097 50.9064V49.1821C12.5097 47.9595 12.6694 46.9985 12.9889 46.2991C13.3137 45.5996 13.755 45.0857 14.3127 44.7572C14.8759 44.4288 15.5256 44.222 16.262 44.1369C16.9984 44.0456 17.7808 44 18.6092 44V47.2753C17.9595 47.2753 17.4722 47.3635 17.1473 47.5399C16.8278 47.7163 16.6139 47.9839 16.5057 48.3427C16.3974 48.7016 16.3432 49.1547 16.3432 49.7021V52.0377C16.3432 52.4999 16.2593 52.9439 16.0914 53.3697C15.9236 53.7955 15.615 54.1756 15.1655 54.5101C14.7161 54.8446 14.0745 55.1092 13.2406 55.3038C12.4122 55.4985 11.332 55.5958 10 55.5958ZM18.6092 67C17.7808 67 16.9984 66.9544 16.262 66.8631C15.5256 66.778 14.8759 66.5712 14.3127 66.2428C13.755 65.9143 13.3137 65.4004 12.9889 64.7009C12.6694 64.0015 12.5097 63.0405 12.5097 61.8179V60.1027C12.5097 59.1843 12.3256 58.5183 11.9574 58.1047C11.5946 57.685 10.9421 57.4752 10 57.4752V55.4042C11.332 55.4042 12.4122 55.5046 13.2406 55.7053C14.0745 55.8999 14.7161 56.1645 15.1655 56.499C15.615 56.8274 15.9236 57.2045 16.0914 57.6303C16.2593 58.0561 16.3432 58.5001 16.3432 58.9623V61.2979C16.3432 61.8453 16.3974 62.2984 16.5057 62.6573C16.6139 63.0161 16.8278 63.2837 17.1473 63.4601C17.4722 63.6365 17.9595 63.7247 18.6092 63.7247V67ZM10 57.4752V53.5339H13.2406V57.4752H10Z" fill="white"/>
<path d="M31.9799 46.1622H35.9434V59.0809C35.938 60.2913 35.6808 61.3496 35.1719 62.2559C34.6629 63.156 33.959 63.8555 33.0602 64.3542C32.1667 64.853 31.1326 65.1023 29.9576 65.1023C28.918 65.1023 27.9731 64.8986 27.123 64.4911C26.2784 64.0836 25.6042 63.451 25.1007 62.5934C24.6025 61.7358 24.3562 60.638 24.3616 59.2999H28.3657C28.3819 59.7804 28.4632 60.1909 28.6093 60.5315C28.761 60.8661 28.9694 61.1185 29.2347 61.2888C29.5 61.4591 29.8168 61.5442 30.185 61.5442C30.5694 61.5442 30.8943 61.453 31.1596 61.2705C31.4249 61.082 31.6253 60.8052 31.7606 60.4403C31.9014 60.0754 31.9745 59.6222 31.9799 59.0809V46.1622Z" fill="white"/>
<path d="M47.4583 51.764C47.4041 51.0949 47.1632 50.5749 46.7354 50.2039C46.3131 49.8268 45.7094 49.6382 44.9242 49.6382C44.4044 49.6382 43.9713 49.7143 43.6247 49.8663C43.2782 50.0184 43.0183 50.2282 42.845 50.4958C42.6718 50.7574 42.5824 51.0584 42.577 51.399C42.5662 51.6788 42.6149 51.9252 42.7232 52.138C42.8369 52.3509 42.9994 52.5395 43.2105 52.7037C43.4271 52.8618 43.687 53.0017 43.9902 53.1234C44.2934 53.245 44.6346 53.3514 45.0136 53.4427L46.443 53.8076C47.2661 54.0083 47.9916 54.2759 48.6197 54.6105C49.2532 54.945 49.7839 55.3434 50.2116 55.8056C50.6448 56.2679 50.9724 56.8001 51.1944 57.4022C51.4164 58.0044 51.5301 58.6795 51.5355 59.4276C51.5301 60.6076 51.2648 61.6203 50.7395 62.4657C50.2143 63.3111 49.459 63.9589 48.4735 64.409C47.4935 64.8591 46.3104 65.0841 44.9242 65.0841C43.5327 65.0841 42.3198 64.8499 41.2856 64.3816C40.2514 63.9133 39.4474 63.2016 38.8734 62.2467C38.2995 61.2918 38.0044 60.0845 37.9881 58.6248H41.8379C41.8704 59.2269 42.0139 59.7287 42.2684 60.1301C42.5229 60.5315 42.8721 60.8356 43.3161 61.0424C43.7655 61.2492 44.2853 61.3526 44.8755 61.3526C45.417 61.3526 45.8772 61.2705 46.2562 61.1063C46.6407 60.9421 46.9358 60.714 47.1415 60.4221C47.3473 60.1301 47.4529 59.7956 47.4583 59.4185C47.4529 59.0657 47.3554 58.7646 47.1659 58.5153C46.9764 58.2598 46.684 58.0409 46.2887 57.8584C45.8989 57.6698 45.4007 57.4965 44.7943 57.3384L43.0562 56.8822C41.6159 56.5112 40.4816 55.9121 39.6531 55.0849C38.8247 54.2516 38.4132 53.1264 38.4186 51.7092C38.4132 50.5536 38.6893 49.5409 39.247 48.6712C39.8047 47.8014 40.5763 47.1232 41.5618 46.6367C42.5472 46.1501 43.6708 45.9068 44.9324 45.9068C46.221 45.9068 47.3392 46.1531 48.2867 46.6458C49.2397 47.1324 49.9788 47.8166 50.504 48.6985C51.0292 49.5805 51.2972 50.6023 51.3081 51.764H47.4583Z" fill="white"/>
<path d="M69.2656 55.5046C69.2656 57.5604 68.9137 59.3029 68.2098 60.7322C67.5059 62.1616 66.5529 63.2473 65.3509 63.9893C64.1542 64.7313 62.8114 65.1023 61.3224 65.1023C59.828 65.1023 58.4824 64.7283 57.2858 63.9802C56.0892 63.232 55.1389 62.1464 54.435 60.7231C53.7365 59.2938 53.3873 57.5543 53.3873 55.5046C53.3873 53.4488 53.7365 51.7062 54.435 50.2769C55.1389 48.8475 56.0892 47.7619 57.2858 47.0198C58.4824 46.2778 59.828 45.9068 61.3224 45.9068C62.8114 45.9068 64.1542 46.2778 65.3509 47.0198C66.5529 47.7619 67.5059 48.8475 68.2098 50.2769C68.9137 51.7062 69.2656 53.4488 69.2656 55.5046ZM65.1559 55.5046C65.1559 54.2881 65.0016 53.2602 64.693 52.4209C64.3898 51.5815 63.9512 50.9459 63.3772 50.5141C62.8087 50.0822 62.1238 49.8663 61.3224 49.8663C60.5265 49.8663 59.8415 50.0822 59.2676 50.5141C58.6936 50.9459 58.2523 51.5815 57.9437 52.4209C57.6405 53.2602 57.4889 54.2881 57.4889 55.5046C57.4889 56.721 57.6405 57.7489 57.9437 58.5883C58.2523 59.4276 58.6936 60.0632 59.2676 60.495C59.8415 60.9269 60.5265 61.1428 61.3224 61.1428C62.1238 61.1428 62.8087 60.9269 63.3772 60.495C63.9512 60.0632 64.3898 59.4276 64.693 58.5883C65.0016 57.7489 65.1559 56.721 65.1559 55.5046Z" fill="white"/>
<path d="M85.7694 46.1622V64.8469H82.3582L75.7388 54.0631H75.6332V64.8469H71.6129V46.1622H75.0728L81.6191 56.9278H81.7571V46.1622H85.7694Z" fill="white"/>
<path d="M101 55.4042V57.4752C100.063 57.4752 99.4108 57.685 99.0426 58.1047C98.6744 58.5183 98.4903 59.1843 98.4903 60.1027V61.8179C98.4903 63.0405 98.3279 64.0015 98.003 64.7009C97.6836 65.4004 97.2423 65.9143 96.6791 66.2428C96.1214 66.5712 95.4744 66.778 94.738 66.8631C94.007 66.9544 93.2246 67 92.3908 67V63.7247C93.0405 63.7247 93.5251 63.6365 93.8446 63.4601C94.1695 63.2837 94.3861 63.0161 94.4943 62.6573C94.6026 62.2984 94.6568 61.8453 94.6568 61.2979V58.9623C94.6568 58.5001 94.7407 58.0561 94.9086 57.6303C95.0764 57.2045 95.385 56.8274 95.8345 56.499C96.2839 56.1645 96.9228 55.8999 97.7512 55.7053C98.5851 55.5046 99.668 55.4042 101 55.4042ZM92.3908 44C93.2246 44 94.007 44.0456 94.738 44.1369C95.4744 44.222 96.1214 44.4288 96.6791 44.7572C97.2423 45.0857 97.6836 45.5996 98.003 46.2991C98.3279 46.9985 98.4903 47.9595 98.4903 49.1821V50.9064C98.4903 51.8187 98.6744 52.4847 99.0426 52.9044C99.4108 53.3241 100.063 53.5339 101 53.5339V55.5958C99.668 55.5958 98.5851 55.4985 97.7512 55.3038C96.9228 55.1092 96.2839 54.8446 95.8345 54.5101C95.385 54.1756 95.0764 53.7955 94.9086 53.3697C94.7407 52.9439 94.6568 52.4999 94.6568 52.0377V49.7021C94.6568 49.1547 94.6026 48.7016 94.4943 48.3427C94.3861 47.9839 94.1695 47.7163 93.8446 47.5399C93.5251 47.3635 93.0405 47.2753 92.3908 47.2753V44ZM101 53.5339V57.4752H97.7594V53.5339H101Z" fill="white"/>
<defs>
<linearGradient id="paint0_linear_6_2" x1="11" y1="7" x2="100.431" y2="104.061" gradientUnits="userSpaceOnUse">
<stop stop-color="#2400FF"/>
<stop offset="1"/>
</linearGradient>
</defs>
</svg>